<svg width="497.227" height="91.001" viewBox="0 0 497.227 91.001" xmlns="http://www.w3.org/2000/svg"><g id="svgGroup" stroke-linecap="round" fill-rule="evenodd" font-size="9pt" stroke="#000" stroke-width=".25mm" fill="#000" style="stroke:#000;stroke-width:.25mm;fill:#000"><path d="M 25.571 89.978 A 57.627 57.627 0 0 0 36.627 91 Q 44.827 91 52.877 88.95 A 61.948 61.948 0 0 0 57.274 87.659 A 51.955 51.955 0 0 0 67.327 83.1 Q 72.827 79.8 77.427 75.55 A 45.631 45.631 0 0 0 79.747 73.25 A 38.359 38.359 0 0 0 84.877 66.45 Q 87.727 61.6 87.727 56.8 A 13.992 13.992 0 0 0 87.199 53 A 16.551 16.551 0 0 0 85.327 48.8 Q 83.752 46.241 80.842 43.897 A 33.627 33.627 0 0 0 77.427 41.5 A 57.765 57.765 0 0 0 74.689 39.885 A 70.529 70.529 0 0 0 69.627 37.35 Q 65.327 35.4 61.127 33.45 Q 56.927 31.5 53.627 29.5 A 27.59 27.59 0 0 1 51.981 28.408 Q 50.721 27.502 49.753 26.562 A 12.797 12.797 0 0 1 47.977 24.45 A 11.797 11.797 0 0 1 46.877 22.387 A 8.432 8.432 0 0 1 46.227 19.2 A 9.897 9.897 0 0 1 47.743 13.994 A 14.765 14.765 0 0 1 49.877 11.3 A 21.41 21.41 0 0 1 53.425 8.407 A 25.304 25.304 0 0 1 59.027 5.7 Q 63.527 4.1 67.377 3.4 Q 71.227 2.7 74.427 2.7 Q 77.599 2.7 80.129 3.262 A 15.814 15.814 0 0 1 83.627 4.45 A 20.054 20.054 0 0 1 84.265 4.775 Q 87.386 6.432 88.977 8.75 A 11.193 11.193 0 0 1 89.973 10.509 A 8.238 8.238 0 0 1 90.727 13.9 Q 90.727 16.4 89.177 18.3 A 5.996 5.996 0 0 1 86.596 20.119 A 8.849 8.849 0 0 1 84.627 20.6 A 8.413 8.413 0 0 0 84.575 20.604 Q 83.314 20.709 82.677 21.15 A 3.254 3.254 0 0 0 82.504 21.277 Q 82.227 21.498 82.111 21.706 A 0.6 0.6 0 0 0 82.027 22 A 0.571 0.571 0 0 0 82.18 22.411 Q 82.455 22.7 83.227 22.7 A 4.346 4.346 0 0 0 83.673 22.678 A 3.246 3.246 0 0 0 84.127 22.6 Q 86.327 22 87.927 21.15 A 23.059 23.059 0 0 0 88.732 20.702 A 19.798 19.798 0 0 0 90.827 19.3 A 12.327 12.327 0 0 0 92.273 17.889 A 8.339 8.339 0 0 0 94.427 12.3 A 9.132 9.132 0 0 0 94.028 9.625 A 10.623 10.623 0 0 0 92.627 6.75 A 11.281 11.281 0 0 0 90.263 4.231 A 14.558 14.558 0 0 0 87.427 2.5 A 17.791 17.791 0 0 0 84.66 1.359 A 22.898 22.898 0 0 0 81.177 0.55 A 44.291 44.291 0 0 0 79.607 0.336 A 49.967 49.967 0 0 0 73.727 0 Q 69.027 0 64.177 0.8 Q 59.327 1.6 55.227 3 A 32.951 32.951 0 0 0 55.19 3.013 A 29.624 29.624 0 0 0 46.777 7.45 A 27.333 27.333 0 0 0 44.488 9.39 A 21.896 21.896 0 0 0 40.877 13.8 A 16.357 16.357 0 0 0 40.139 15.133 A 13.139 13.139 0 0 0 38.727 21 Q 38.727 24.1 40.577 27.2 A 13.573 13.573 0 0 0 41.381 28.396 Q 43.208 30.827 46.427 33 A 36.487 36.487 0 0 0 49.249 34.726 A 47.841 47.841 0 0 0 52.927 36.55 Q 56.627 38.2 60.477 39.8 A 137.248 137.248 0 0 1 62.377 40.606 A 121.65 121.65 0 0 1 67.777 43.1 A 45.009 45.009 0 0 1 68.21 43.317 Q 71.379 44.921 73.627 46.7 A 18.612 18.612 0 0 1 75.781 48.659 A 14.071 14.071 0 0 1 78.277 52.3 Q 79.727 55.4 79.727 58.8 A 16.982 16.982 0 0 1 79.671 60.176 Q 79.206 65.898 74.877 71.7 A 34.67 34.67 0 0 1 69.369 77.504 A 43.433 43.433 0 0 1 61.727 82.6 A 45.547 45.547 0 0 1 58.239 84.223 A 52.613 52.613 0 0 1 49.777 86.9 Q 43.227 88.4 36.527 88.4 A 54.959 54.959 0 0 1 35.779 88.395 A 49.544 49.544 0 0 1 25.027 87.1 A 36.009 36.009 0 0 1 22.514 86.411 A 30.322 30.322 0 0 1 15.227 83.05 Q 10.927 80.3 8.377 76.05 A 17.259 17.259 0 0 1 6.35 70.908 A 22.855 22.855 0 0 1 5.827 65.9 Q 5.827 60.9 7.227 56 Q 8.627 51.1 11.427 46.8 Q 14.127 42.5 18.327 39.2 A 13.605 13.605 0 0 0 18.81 38.83 Q 19.529 38.252 19.739 37.876 A 0.58 0.58 0 0 0 19.827 37.6 Q 19.827 37.3 19.227 37.3 Q 18.927 37.3 18.277 37.4 A 5.269 5.269 0 0 0 18.15 37.421 Q 17.597 37.52 17.327 37.7 A 21.753 21.753 0 0 0 14.395 39.337 A 26.004 26.004 0 0 0 10.377 42.65 Q 7.127 45.9 4.777 49.95 Q 2.427 54 1.127 58.1 A 25.918 25.918 0 0 0 0.313 61.342 Q -0.091 63.593 0.027 65.6 A 28.008 28.008 0 0 0 0.265 67.944 A 21.836 21.836 0 0 0 5.527 79.55 Q 10.527 85.2 18.677 88.1 A 47.925 47.925 0 0 0 25.571 89.978 Z" id="0" vector-effect="non-scaling-stroke"/><path d="M 117.806 82.114 A 3.538 3.538 0 0 0 118.127 82.1 A 5.72 5.72 0 0 0 118.962 81.961 Q 119.948 81.721 120.925 81.126 A 10.307 10.307 0 0 0 122.477 79.95 Q 124.627 78 126.627 75.05 Q 128.627 72.1 130.327 68.95 A 185.99 185.99 0 0 0 130.795 68.077 Q 132.195 65.449 133.227 63.3 A 12.457 12.457 0 0 0 133.286 63.139 Q 133.464 62.644 133.51 62.368 A 1.034 1.034 0 0 0 133.527 62.2 Q 133.527 61.5 133.027 61.5 A 1.061 1.061 0 0 0 132.404 61.691 Q 132.052 61.937 131.827 62.5 Q 130.927 64.3 129.427 67.15 Q 127.927 70 126.127 72.8 A 41.04 41.04 0 0 1 125.898 73.152 Q 124.209 75.721 122.477 77.5 A 11.873 11.873 0 0 1 122.338 77.64 Q 120.566 79.4 119.027 79.4 Q 117.427 79.4 117.427 76.6 A 5.026 5.026 0 0 1 117.436 76.318 Q 117.464 75.829 117.577 75 A 116.096 116.096 0 0 1 117.644 74.512 Q 117.716 74.005 117.774 73.631 A 30.145 30.145 0 0 1 117.827 73.3 A 22.112 22.112 0 0 1 118.126 72.182 Q 118.377 71.327 118.725 70.363 A 47.962 47.962 0 0 1 119.527 68.3 Q 120.727 65.4 122.227 62.6 Q 123.727 59.8 125.077 57.6 A 40.561 40.561 0 0 1 125.708 56.602 Q 126.624 55.203 127.227 54.6 Q 126.027 54.8 124.927 54.5 Q 123.827 54.2 122.727 54.2 A 5.83 5.83 0 0 0 122.073 54.236 A 4.174 4.174 0 0 0 119.027 56 A 30.82 30.82 0 0 0 118.406 56.893 Q 117.88 57.679 117.324 58.602 A 61.644 61.644 0 0 0 116.227 60.5 A 258.465 258.465 0 0 1 114.861 62.951 A 218.815 218.815 0 0 1 111.927 68 Q 109.827 71.5 107.227 74.7 A 25.68 25.68 0 0 1 106.133 75.892 Q 104.254 77.809 102.584 78.58 A 5.142 5.142 0 0 1 100.427 79.1 A 3.501 3.501 0 0 1 100.167 79.091 Q 97.927 78.924 97.927 75.8 L 97.927 75.05 A 1.295 1.295 0 0 1 97.927 75.042 Q 97.928 74.79 98.027 74.2 A 17.793 17.793 0 0 1 98.265 72.932 A 20.776 20.776 0 0 1 99.127 70.1 A 48.058 48.058 0 0 1 99.836 68.339 A 37.407 37.407 0 0 1 100.777 66.3 A 75.383 75.383 0 0 1 100.899 66.057 Q 101.458 64.948 101.807 64.355 A 7.503 7.503 0 0 1 102.027 64 A 55.511 55.511 0 0 1 102.541 63.178 A 60.452 60.452 0 0 1 108.377 55.5 A 39.977 39.977 0 0 1 109.99 53.788 Q 111.323 52.457 112.623 51.442 A 19.114 19.114 0 0 1 115.427 49.6 Q 116.733 48.947 117.863 48.682 A 6.412 6.412 0 0 1 119.327 48.5 Q 121.893 48.5 123.189 50.279 A 5.909 5.909 0 0 1 124.027 52 A 2.381 2.381 0 0 0 124.254 52.046 Q 124.9 52.142 125.327 51.8 A 1.638 1.638 0 0 0 125.43 51.71 A 1.208 1.208 0 0 0 125.827 50.8 Q 125.827 49.9 125.127 49.2 Q 123.527 47.5 121.427 46.75 Q 119.327 46 117.027 46 A 15.8 15.8 0 0 0 112.925 46.555 A 20.14 20.14 0 0 0 108.877 48.15 Q 104.727 50.3 101.827 53.8 A 57.715 57.715 0 0 0 100.955 54.892 Q 99.12 57.249 97.751 59.531 A 32.715 32.715 0 0 0 95.327 64.4 A 37.783 37.783 0 0 0 94.69 66.146 Q 93.34 70.159 93.327 73.438 A 16.061 16.061 0 0 0 93.327 73.5 Q 93.327 77.3 94.927 79.65 A 6.732 6.732 0 0 0 95.458 80.335 A 4.712 4.712 0 0 0 99.127 82 Q 100.527 82 102.227 81.2 A 9.666 9.666 0 0 0 103.035 80.77 Q 104.372 79.978 105.827 78.6 A 28.247 28.247 0 0 0 107.04 77.367 A 32.422 32.422 0 0 0 109.927 73.75 Q 111.352 71.688 112.383 70.103 A 87.33 87.33 0 0 0 113.027 69.1 A 35.301 35.301 0 0 0 112.628 70.762 Q 112.378 71.93 112.253 72.959 A 16.134 16.134 0 0 0 112.127 74.9 A 13.428 13.428 0 0 0 112.198 76.319 Q 112.399 78.216 113.177 79.4 A 8.587 8.587 0 0 0 113.234 79.486 Q 114.265 81.016 115.627 81.6 A 8.256 8.256 0 0 0 115.971 81.739 Q 116.969 82.114 117.806 82.114 Z" id="1" vector-effect="non-scaling-stroke"/><path d="M 131.027 80.9 A 3.49 3.49 0 0 0 132.434 81.991 Q 133.578 82.5 135.327 82.5 A 9.753 9.753 0 0 0 139.358 81.639 A 11.918 11.918 0 0 0 142.327 79.7 Q 145.527 76.9 148.177 72.55 Q 150.827 68.2 152.777 63.45 Q 154.727 58.7 156.077 54.7 A 3616.105 3616.105 0 0 0 156.674 52.929 Q 157.591 50.208 158.127 48.6 Q 158.127 48.2 158.327 48 Q 158.543 47.422 158.604 47.053 A 1.59 1.59 0 0 0 158.627 46.8 A 2.454 2.454 0 0 0 158.586 46.34 Q 158.349 45.1 156.727 45.1 A 2.912 2.912 0 0 0 156.196 45.151 Q 154.86 45.399 153.077 46.85 Q 150.927 48.6 149.727 52.6 A 11.825 11.825 0 0 0 149.557 53.245 A 12.943 12.943 0 0 0 149.227 56.2 A 17.378 17.378 0 0 0 149.237 56.804 A 19.387 19.387 0 0 0 149.527 59.5 Q 149.827 61.2 150.527 62.6 A 90.875 90.875 0 0 1 149.841 64.231 A 80.417 80.417 0 0 1 146.627 70.85 Q 145.429 73.046 144.183 74.737 A 21.292 21.292 0 0 1 142.277 77 A 11.208 11.208 0 0 1 141.574 77.661 Q 140.828 78.303 140.076 78.693 A 5.053 5.053 0 0 1 137.727 79.3 Q 137.127 79.3 136.327 79 A 1.851 1.851 0 0 1 135.518 78.088 Q 135.364 77.739 135.291 77.287 A 5.618 5.618 0 0 1 135.227 76.4 A 9.588 9.588 0 0 1 135.227 76.375 Q 135.233 74.081 136.327 70.6 Q 137.427 67.1 138.727 63.7 A 38.085 38.085 0 0 0 139.006 62.95 Q 139.853 60.601 140.627 57.55 Q 141.527 54 141.627 51.5 Q 141.727 48.8 141.377 48 A 1.237 1.237 0 0 0 140.544 47.265 A 1.917 1.917 0 0 0 140.027 47.2 A 6.563 6.563 0 0 0 139.973 47.2 Q 139.784 47.202 139.573 47.214 A 10.922 10.922 0 0 0 139.127 47.25 Q 138.627 47.3 138.027 47.4 A 2.349 2.349 0 0 0 137.902 47.404 Q 137.462 47.428 136.427 47.6 Q 135.227 47.8 134.177 48 L 133.127 48.2 A 1.368 1.368 0 0 1 133.699 48.501 Q 134.086 48.837 134.327 49.5 Q 134.57 50.17 134.666 51.026 A 10.637 10.637 0 0 1 134.727 52.2 Q 134.727 54.2 134.177 56.55 Q 133.884 57.799 133.522 58.864 A 16.808 16.808 0 0 1 132.827 60.6 Q 132.427 61.5 131.927 62.35 Q 131.427 63.2 130.927 64.1 Q 130.627 64.6 130.827 65 Q 130.93 65.206 131.086 65.306 A 0.619 0.619 0 0 0 131.427 65.4 A 0.999 0.999 0 0 0 131.631 65.379 Q 132.057 65.29 132.482 64.832 A 4.034 4.034 0 0 0 132.827 64.4 Q 131.727 67.6 130.777 70.9 Q 130.257 72.705 130.022 74.3 A 17.159 17.159 0 0 0 129.827 76.8 Q 129.827 79.3 131.027 80.9 Z" id="2" vector-effect="non-scaling-stroke"/><path d="M 165.227 82.2 Q 161.527 82.2 158.577 79.8 A 7.63 7.63 0 0 1 156.024 75.761 Q 155.676 74.482 155.633 72.945 A 15.717 15.717 0 0 1 155.627 72.5 Q 155.627 68.132 157.7 63.151 A 35.085 35.085 0 0 1 157.827 62.85 Q 160.027 57.7 163.427 53.8 A 27.275 27.275 0 0 1 169.368 48.551 A 25.658 25.658 0 0 1 169.927 48.2 A 17.553 17.553 0 0 1 172.57 46.859 Q 174.12 46.242 175.589 46.068 A 9.679 9.679 0 0 1 176.727 46 A 6.758 6.758 0 0 1 178.806 46.31 A 5.814 5.814 0 0 1 180.527 47.2 A 4.229 4.229 0 0 1 182.193 50.247 A 6.17 6.17 0 0 1 182.227 50.9 A 7.802 7.802 0 0 1 181.863 53.183 Q 181.571 54.139 181.044 55.157 A 16.581 16.581 0 0 1 180.327 56.4 A 18.524 18.524 0 0 1 177.77 59.562 A 25.416 25.416 0 0 1 174.927 62 A 15.287 15.287 0 0 1 173.49 62.927 Q 172.438 63.53 171.127 64.1 Q 168.827 65.1 166.527 65.75 Q 164.239 66.396 162.743 66.4 A 6.934 6.934 0 0 1 162.727 66.4 Q 162.227 67.6 161.777 69.6 Q 161.327 71.6 161.327 73.7 A 10.768 10.768 0 0 0 161.643 76.354 A 9.132 9.132 0 0 0 162.327 78.2 A 3.427 3.427 0 0 0 164.81 80.081 A 5.826 5.826 0 0 0 166.027 80.2 Q 169.327 80.2 172.027 78.3 A 20.669 20.669 0 0 0 176.394 74.119 A 23.539 23.539 0 0 0 176.827 73.55 Q 178.927 70.7 180.377 67.8 Q 181.809 64.935 182.705 62.948 A 73.232 73.232 0 0 0 182.727 62.9 A 3.877 3.877 0 0 1 183.03 62.321 Q 183.561 61.5 184.327 61.5 A 0.72 0.72 0 0 1 184.525 61.525 Q 184.827 61.611 184.827 62 A 1.396 1.396 0 0 1 184.791 62.299 Q 184.724 62.606 184.527 63 Q 183.127 66 181.527 69.35 Q 179.927 72.7 177.727 75.65 Q 175.527 78.6 172.477 80.4 A 12.763 12.763 0 0 1 168.097 81.968 A 17.035 17.035 0 0 1 165.227 82.2 Z M 163.427 64.6 Q 164.827 64.6 168.127 63.55 Q 171.427 62.5 174.127 60.2 A 18.501 18.501 0 0 0 176.791 57.31 A 15.566 15.566 0 0 0 178.127 55.15 A 17.813 17.813 0 0 0 178.861 53.524 Q 179.527 51.81 179.527 50.5 A 4.456 4.456 0 0 0 179.463 49.711 Q 179.208 48.3 177.927 48.3 Q 176.727 48.3 174.627 49.9 A 17.151 17.151 0 0 0 173.292 51.044 Q 172.001 52.257 170.421 54.107 A 69.25 69.25 0 0 0 169.427 55.3 A 50.388 50.388 0 0 0 166.255 59.806 A 55.924 55.924 0 0 0 165.827 60.5 Q 164.127 63.3 163.427 64.6 Z" id="3" vector-effect="non-scaling-stroke"/><path d="M 214.627 45.9 L 209.327 45.9 Q 208.741 45.9 208.645 45.2 A 2.224 2.224 0 0 1 208.627 44.9 A 1.713 1.713 0 0 1 208.745 44.26 A 1.623 1.623 0 0 1 208.877 44 Q 209.127 43.6 209.627 43.6 L 215.627 43.6 Q 217.327 39.8 219.227 36.2 Q 221.127 32.6 222.927 29.4 Q 224.681 26.349 226.61 24.462 A 13.598 13.598 0 0 1 227.827 23.4 Q 230.427 21.4 232.327 21.4 A 3.154 3.154 0 0 1 234.684 22.394 A 3.957 3.957 0 0 1 234.827 22.55 A 3.615 3.615 0 0 1 235.506 23.764 Q 235.691 24.303 235.77 24.967 A 8.835 8.835 0 0 1 235.827 26 A 9.102 9.102 0 0 1 235.77 26.964 Q 235.66 27.989 235.338 29.384 A 35.7 35.7 0 0 1 235.227 29.85 A 23.612 23.612 0 0 1 234.33 32.685 A 30.632 30.632 0 0 1 233.327 35 Q 232.791 36.072 231.932 37.847 A 580.991 580.991 0 0 0 231.377 39 A 66.691 66.691 0 0 1 230.142 41.446 A 48.498 48.498 0 0 1 228.927 43.6 L 233.727 43.6 Q 234.312 43.6 234.408 44.3 A 2.224 2.224 0 0 1 234.427 44.6 A 1.826 1.826 0 0 1 234.365 45.059 A 2.526 2.526 0 0 1 234.227 45.45 A 1.023 1.023 0 0 1 234.106 45.657 Q 234.005 45.79 233.871 45.85 A 0.589 0.589 0 0 1 233.627 45.9 L 227.727 45.9 Q 225.227 50.2 222.027 54.3 Q 218.827 58.4 214.427 62.5 Q 214.127 63.4 213.677 65.1 Q 213.227 66.8 212.877 68.55 A 541.209 541.209 0 0 1 212.628 69.785 Q 212.433 70.75 212.277 71.5 L 212.027 72.7 Q 211.727 74 211.727 75.1 Q 211.727 77.2 212.727 78.15 Q 213.727 79.1 215.027 79.1 Q 215.827 79.1 216.627 78.85 Q 217.427 78.6 218.427 77.9 A 21.061 21.061 0 0 0 222.47 74.072 A 27.227 27.227 0 0 0 224.577 71.1 Q 227.227 66.8 229.227 62.8 A 5.159 5.159 0 0 1 229.48 62.347 Q 229.756 61.911 230.033 61.729 A 0.713 0.713 0 0 1 230.427 61.6 A 0.366 0.366 0 0 1 230.637 61.658 Q 230.827 61.786 230.827 62.2 A 1.034 1.034 0 0 1 230.81 62.368 Q 230.764 62.644 230.586 63.139 A 12.457 12.457 0 0 1 230.527 63.3 A 309.742 309.742 0 0 1 229.47 65.488 Q 227.952 68.6 226.827 70.7 Q 225.605 72.981 224.45 74.631 A 24.032 24.032 0 0 1 223.927 75.35 A 28.228 28.228 0 0 1 221.82 77.813 A 33.887 33.887 0 0 1 220.627 79 Q 219.227 80.4 217.427 81.1 Q 215.627 81.8 213.827 81.8 Q 211.027 81.8 208.827 79.85 Q 206.627 77.9 206.627 73.7 A 22.45 22.45 0 0 1 206.795 71.068 Q 206.959 69.69 207.28 68.117 A 52.228 52.228 0 0 1 207.877 65.55 A 116.39 116.39 0 0 1 209.879 58.692 A 136.321 136.321 0 0 1 210.977 55.45 Q 212.827 50.2 214.627 45.9 Z M 221.727 43.6 L 226.827 43.6 A 190.071 190.071 0 0 0 229.438 38.578 A 173.6 173.6 0 0 0 229.477 38.5 Q 230.727 36 231.727 33.5 A 20.413 20.413 0 0 0 232.451 31.574 A 26.2 26.2 0 0 0 232.927 29.9 A 25.791 25.791 0 0 0 233.168 28.846 Q 233.379 27.824 233.418 27.109 A 5.68 5.68 0 0 0 233.427 26.8 A 4.854 4.854 0 0 0 233.404 26.309 Q 233.301 25.3 232.727 25.3 A 0.878 0.878 0 0 0 232.429 25.36 Q 231.997 25.518 231.346 26.089 A 9.376 9.376 0 0 0 231.277 26.15 A 8.249 8.249 0 0 0 230.707 26.719 Q 230.114 27.365 229.386 28.359 A 36.093 36.093 0 0 0 228.927 29 A 26.263 26.263 0 0 0 227.584 31.079 Q 226.888 32.268 226.2 33.678 A 52.934 52.934 0 0 0 225.377 35.45 A 1134.456 1134.456 0 0 1 222.199 42.554 A 1249.214 1249.214 0 0 1 221.727 43.6 Z M 225.427 45.9 L 220.727 45.9 Q 219.127 49.6 217.727 53.1 A 1313.091 1313.091 0 0 1 216.559 56.009 Q 216.024 57.338 215.542 58.525 A 752.849 752.849 0 0 1 215.227 59.3 Q 218.127 56.3 220.677 52.9 Q 223.227 49.5 225.427 45.9 Z" id="5" vector-effect="non-scaling-stroke"/><path d="M 219.427 82.6 Q 223.627 74 228.177 64.55 Q 232.727 55.1 237.527 45.5 A 672.359 672.359 0 0 1 244.67 31.606 A 594.047 594.047 0 0 1 247.027 27.2 A 46.265 46.265 0 0 1 248.166 25.291 Q 248.729 24.401 249.261 23.669 A 19.24 19.24 0 0 1 250.177 22.5 A 4.735 4.735 0 0 1 253.648 20.811 A 6.468 6.468 0 0 1 254.027 20.8 A 6.611 6.611 0 0 1 254.807 20.85 Q 255.414 20.922 256.127 21.1 A 5.958 5.958 0 0 0 257.186 21.269 Q 257.822 21.31 258.427 21.2 A 14.86 14.86 0 0 0 257.717 22.031 Q 256.564 23.475 254.877 26.1 A 124.32 124.32 0 0 0 253.119 28.922 Q 251.595 31.438 249.877 34.5 Q 247.127 39.4 244.077 45.05 Q 241.027 50.7 238.077 56.45 Q 235.127 62.2 232.627 67.2 Q 234.627 64.6 236.727 62.3 Q 238.827 60 240.827 58.3 A 34.677 34.677 0 0 1 242.888 56.577 Q 244.003 55.711 245.318 54.81 A 64.809 64.809 0 0 1 246.377 54.1 A 58.12 58.12 0 0 1 251.82 50.921 A 51.932 51.932 0 0 1 253.077 50.3 Q 255.999 48.904 257.895 48.726 A 5.695 5.695 0 0 1 258.427 48.7 A 7.84 7.84 0 0 1 258.752 48.706 Q 259.063 48.719 259.267 48.759 A 1.3 1.3 0 0 1 259.427 48.8 L 258.327 50.8 Q 257.281 52.7 255.74 55.594 A 765.327 765.327 0 0 0 255.577 55.9 A 191.052 191.052 0 0 0 253.475 59.97 A 232.177 232.177 0 0 0 252.177 62.6 A 112.7 112.7 0 0 0 250.165 66.963 A 92.07 92.07 0 0 0 249.127 69.45 A 49.39 49.39 0 0 0 248.402 71.369 Q 247.748 73.224 247.465 74.606 A 14.24 14.24 0 0 0 247.427 74.8 A 21.691 21.691 0 0 0 247.25 75.886 Q 247.181 76.397 247.15 76.844 A 9.721 9.721 0 0 0 247.127 77.5 A 6.674 6.674 0 0 0 247.162 78.214 Q 247.272 79.233 247.727 79.65 Q 248.327 80.2 249.027 80.2 A 3.327 3.327 0 0 0 250.393 79.883 Q 251.393 79.434 252.484 78.348 A 12.936 12.936 0 0 0 252.727 78.1 Q 254.695 76.033 256.567 73.045 A 43.758 43.758 0 0 0 256.627 72.95 Q 258.527 69.9 260.077 67 A 372.323 372.323 0 0 0 260.805 65.631 Q 261.507 64.304 262.01 63.322 A 94.572 94.572 0 0 0 262.427 62.5 Q 262.851 61.722 263.276 61.494 A 0.737 0.737 0 0 1 263.627 61.4 A 0.63 0.63 0 0 1 263.903 61.457 Q 264.227 61.613 264.227 62.2 A 1.59 1.59 0 0 1 264.204 62.453 Q 264.143 62.822 263.927 63.4 A 903.157 903.157 0 0 1 262.585 66.071 Q 261.875 67.48 261.083 69.041 A 1472.891 1472.891 0 0 1 260.977 69.25 Q 259.327 72.5 257.277 75.45 A 24.123 24.123 0 0 1 254.848 78.432 A 19.337 19.337 0 0 1 252.777 80.3 A 9.361 9.361 0 0 1 250.321 81.695 A 7.914 7.914 0 0 1 247.527 82.2 A 6.349 6.349 0 0 1 245.245 81.757 Q 244.43 81.445 243.599 80.913 A 11.247 11.247 0 0 1 243.427 80.8 Q 241.327 79.4 241.327 75.7 Q 241.327 74.6 241.527 73.35 A 16.226 16.226 0 0 1 241.759 72.189 Q 241.945 71.4 242.227 70.5 A 16.766 16.766 0 0 1 242.89 68.698 Q 243.277 67.799 243.798 66.824 A 31.576 31.576 0 0 1 244.227 66.05 Q 245.627 63.6 247.827 59.9 A 12.164 12.164 0 0 0 248.287 59.046 Q 248.7 58.196 248.797 57.566 A 2.41 2.41 0 0 0 248.827 57.2 A 1.728 1.728 0 0 0 248.767 56.725 Q 248.615 56.193 248.071 56.051 A 1.768 1.768 0 0 0 247.627 56 Q 246.783 56 245.44 56.713 A 13.416 13.416 0 0 0 244.927 57 A 13.054 13.054 0 0 0 243.807 57.749 Q 242.756 58.524 241.45 59.725 A 50.606 50.606 0 0 0 240.627 60.5 A 43.151 43.151 0 0 0 238.947 62.215 Q 237.248 64.039 235.131 66.631 A 147.707 147.707 0 0 0 234.427 67.5 A 47.301 47.301 0 0 0 231.824 71.1 Q 229.283 74.953 226.527 80.4 A 4.683 4.683 0 0 1 226.19 80.941 Q 225.627 81.712 224.977 81.75 Q 224.127 81.8 222.727 81.9 Q 221.827 82 220.927 82.05 A 2.896 2.896 0 0 0 220.179 82.186 A 2.274 2.274 0 0 0 219.427 82.6 Z" id="6" vector-effect="non-scaling-stroke"/><path d="M 269.527 82.2 Q 265.827 82.2 262.877 79.8 A 7.63 7.63 0 0 1 260.324 75.761 Q 259.976 74.482 259.933 72.945 A 15.717 15.717 0 0 1 259.927 72.5 Q 259.927 68.132 262 63.151 A 35.085 35.085 0 0 1 262.127 62.85 Q 264.327 57.7 267.727 53.8 A 27.275 27.275 0 0 1 273.668 48.551 A 25.658 25.658 0 0 1 274.227 48.2 A 17.553 17.553 0 0 1 276.87 46.859 Q 278.42 46.242 279.889 46.068 A 9.679 9.679 0 0 1 281.027 46 A 6.758 6.758 0 0 1 283.106 46.31 A 5.814 5.814 0 0 1 284.827 47.2 A 4.229 4.229 0 0 1 286.493 50.247 A 6.17 6.17 0 0 1 286.527 50.9 A 7.802 7.802 0 0 1 286.163 53.183 Q 285.871 54.139 285.344 55.157 A 16.581 16.581 0 0 1 284.627 56.4 A 18.524 18.524 0 0 1 282.07 59.562 A 25.416 25.416 0 0 1 279.227 62 A 15.287 15.287 0 0 1 277.79 62.927 Q 276.738 63.53 275.427 64.1 Q 273.127 65.1 270.827 65.75 Q 268.539 66.396 267.043 66.4 A 6.934 6.934 0 0 1 267.027 66.4 Q 266.527 67.6 266.077 69.6 Q 265.627 71.6 265.627 73.7 A 10.768 10.768 0 0 0 265.943 76.354 A 9.132 9.132 0 0 0 266.627 78.2 A 3.427 3.427 0 0 0 269.11 80.081 A 5.826 5.826 0 0 0 270.327 80.2 Q 273.627 80.2 276.327 78.3 A 20.669 20.669 0 0 0 280.694 74.119 A 23.539 23.539 0 0 0 281.127 73.55 Q 283.227 70.7 284.677 67.8 Q 286.109 64.935 287.005 62.948 A 73.232 73.232 0 0 0 287.027 62.9 A 3.877 3.877 0 0 1 287.33 62.321 Q 287.861 61.5 288.627 61.5 A 0.72 0.72 0 0 1 288.825 61.525 Q 289.127 61.611 289.127 62 A 1.396 1.396 0 0 1 289.091 62.299 Q 289.024 62.606 288.827 63 Q 287.427 66 285.827 69.35 Q 284.227 72.7 282.027 75.65 Q 279.827 78.6 276.777 80.4 A 12.763 12.763 0 0 1 272.397 81.968 A 17.035 17.035 0 0 1 269.527 82.2 Z M 267.727 64.6 Q 269.127 64.6 272.427 63.55 Q 275.727 62.5 278.427 60.2 A 18.501 18.501 0 0 0 281.091 57.31 A 15.566 15.566 0 0 0 282.427 55.15 A 17.813 17.813 0 0 0 283.161 53.524 Q 283.827 51.81 283.827 50.5 A 4.456 4.456 0 0 0 283.763 49.711 Q 283.508 48.3 282.227 48.3 Q 281.027 48.3 278.927 49.9 A 17.151 17.151 0 0 0 277.592 51.044 Q 276.301 52.257 274.721 54.107 A 69.25 69.25 0 0 0 273.727 55.3 A 50.388 50.388 0 0 0 270.555 59.806 A 55.924 55.924 0 0 0 270.127 60.5 Q 268.427 63.3 267.727 64.6 Z" id="7" vector-effect="non-scaling-stroke"/><path d="M 385.527 12.1 L 388.027 9.2 A 19.722 19.722 0 0 1 388.662 8.661 Q 389.333 8.115 390.265 7.428 A 66.608 66.608 0 0 1 390.577 7.2 Q 392.227 6 393.927 4.9 Q 395.627 3.8 396.427 3.5 Q 397.63 3.037 398.405 3.003 A 2.744 2.744 0 0 1 398.527 3 Q 399.127 3 399.127 3.3 Q 399.127 3.952 397.739 4.864 A 11.028 11.028 0 0 1 397.527 5 Q 396.527 5.7 395.727 6.55 Q 395.067 7.251 394.68 7.713 A 10.766 10.766 0 0 0 394.527 7.9 Q 393.378 9.508 392.611 10.647 A 56.728 56.728 0 0 0 392.177 11.3 Q 391.416 12.463 390.216 14.266 A 863.51 863.51 0 0 1 389.927 14.7 Q 399.127 20.8 404.927 30.45 A 40.78 40.78 0 0 1 410.555 48.319 A 50.191 50.191 0 0 1 410.727 52.5 Q 410.727 55.1 410.427 57.8 A 30.107 30.107 0 0 1 408.394 66.337 A 27.383 27.383 0 0 1 406.927 69.4 Q 404.027 74.6 399.377 78.2 Q 394.727 81.8 389.077 83.75 Q 383.427 85.7 377.227 85.7 Q 374.927 85.7 372.627 85.4 A 138.834 138.834 0 0 1 366.028 84.441 Q 362.944 83.911 360.307 83.284 A 61.682 61.682 0 0 1 356.477 82.25 Q 350.127 80.3 345.327 78.2 Q 336.227 85.7 324.927 85.7 Q 322.627 85.7 320.227 85.4 A 25.293 25.293 0 0 1 316.699 84.713 Q 314.921 84.223 313.523 83.489 A 10.407 10.407 0 0 1 310.977 81.65 A 11.664 11.664 0 0 1 309.239 79.475 A 7.92 7.92 0 0 1 308.027 75.3 A 8.238 8.238 0 0 1 309.706 70.343 A 12.092 12.092 0 0 1 311.277 68.6 Q 314.119 65.977 319.063 65.647 A 22.023 22.023 0 0 1 320.527 65.6 A 23.256 23.256 0 0 1 324.906 66.038 Q 326.987 66.438 329.227 67.2 Q 331.227 67.8 334.177 69.25 Q 337.127 70.7 340.027 72.2 A 279.707 279.707 0 0 1 341.395 72.913 Q 343.327 73.925 344.527 74.6 Q 348.927 70.3 352.677 64.65 A 137.356 137.356 0 0 0 358.863 54.348 A 153.321 153.321 0 0 0 359.827 52.55 Q 363.227 46.1 366.727 39.5 Q 370.227 32.9 374.077 26.65 Q 377.927 20.4 382.627 15.2 Q 377.427 12 371.177 10.25 Q 364.927 8.5 358.327 8.5 Q 355.827 8.5 353.277 8.8 Q 350.727 9.1 348.127 9.6 A 52.73 52.73 0 0 0 340.169 11.943 A 38.34 38.34 0 0 0 332.427 15.95 Q 326.027 20.3 322.777 25.45 Q 320.108 29.679 319.631 33.538 A 13.534 13.534 0 0 0 319.527 35.2 A 10.878 10.878 0 0 0 320.145 38.91 A 9.893 9.893 0 0 0 321.327 41.2 A 8.764 8.764 0 0 0 324.413 43.916 A 12.515 12.515 0 0 0 326.827 44.9 Q 328.894 45.513 330.551 45.656 A 11.316 11.316 0 0 0 331.527 45.7 A 13.624 13.624 0 0 0 334.434 45.403 A 10.484 10.484 0 0 0 337.277 44.35 Q 339.727 43 341.427 41 A 20.207 20.207 0 0 0 342.751 39.269 Q 343.499 38.169 343.977 37.1 A 17.532 17.532 0 0 0 344.425 36.007 Q 344.812 34.958 344.908 34.18 A 4.509 4.509 0 0 0 344.927 34 Q 344.927 33.3 345.827 33.3 Q 347.227 33.3 346.927 35 Q 346.427 39 343.927 41.95 Q 341.427 44.9 337.927 46.55 Q 334.427 48.2 330.727 48.2 A 16.002 16.002 0 0 1 327.337 47.823 A 19.518 19.518 0 0 1 325.727 47.4 Q 321.127 45.8 317.977 41.85 A 14.404 14.404 0 0 1 314.839 33.169 A 18.062 18.062 0 0 1 314.827 32.5 A 17.181 17.181 0 0 1 316.213 25.856 A 23.808 23.808 0 0 1 318.377 21.85 A 23.865 23.865 0 0 1 322.296 17.37 Q 324.341 15.522 326.992 13.823 A 48.309 48.309 0 0 1 329.727 12.2 A 43.555 43.555 0 0 1 336.856 9.119 Q 342.645 7.169 350.127 6.1 Q 354.327 5.5 358.627 5.5 Q 365.727 5.5 372.577 7.2 Q 379.427 8.9 385.527 12.1 Z M 375.527 82.7 A 31.539 31.539 0 0 0 383.395 81.755 A 25.994 25.994 0 0 0 389.677 79.25 Q 395.827 75.8 399.627 70.2 Q 403.427 64.6 404.127 58.1 Q 404.427 55.7 404.427 53.3 A 44.288 44.288 0 0 0 402.424 39.834 A 40.153 40.153 0 0 0 399.777 33.45 Q 395.127 24.5 387.527 18.4 Q 383.127 25.3 378.477 33 Q 373.827 40.7 369.127 48.25 A 354.997 354.997 0 0 1 363.349 57.238 A 290.997 290.997 0 0 1 359.977 62.2 Q 355.527 68.6 351.627 72.8 A 12.096 12.096 0 0 0 351.155 73.229 Q 350.677 73.685 350.076 74.333 A 40.63 40.63 0 0 0 349.877 74.55 Q 348.827 75.7 347.727 76.4 A 69.249 69.249 0 0 0 353.087 78.518 A 92.339 92.339 0 0 0 358.427 80.2 A 60.804 60.804 0 0 0 364.079 81.496 Q 367.97 82.206 372.527 82.6 A 19.352 19.352 0 0 0 373.167 82.661 Q 373.481 82.685 373.758 82.695 A 9.645 9.645 0 0 0 374.077 82.7 L 375.527 82.7 Z M 322.727 82.6 A 30.765 30.765 0 0 0 324.402 82.646 Q 328.395 82.646 332.003 81.577 A 24.914 24.914 0 0 0 333.027 81.25 Q 337.827 79.6 341.927 76.6 Q 338.327 74.9 334.627 73.05 A 75.15 75.15 0 0 0 326.891 69.724 A 81.102 81.102 0 0 0 326.827 69.7 A 20.347 20.347 0 0 0 324.77 69.126 Q 323.753 68.902 322.837 68.832 A 10.637 10.637 0 0 0 322.027 68.8 Q 319.28 68.8 317.525 69.93 A 5.694 5.694 0 0 0 316.427 70.85 A 7.546 7.546 0 0 0 315.136 72.712 A 6.141 6.141 0 0 0 314.527 75.4 A 6.56 6.56 0 0 0 316.05 79.6 A 8.868 8.868 0 0 0 316.627 80.25 Q 318.489 82.157 321.845 82.53 A 14.557 14.557 0 0 0 322.727 82.6 Z" id="9" vector-effect="non-scaling-stroke"/><path d="M 436.506 82.114 A 3.538 3.538 0 0 0 436.827 82.1 A 5.72 5.72 0 0 0 437.662 81.961 Q 438.648 81.721 439.625 81.126 A 10.307 10.307 0 0 0 441.177 79.95 Q 443.327 78 445.327 75.05 Q 447.327 72.1 449.027 68.95 A 185.99 185.99 0 0 0 449.495 68.077 Q 450.895 65.449 451.927 63.3 A 12.457 12.457 0 0 0 451.986 63.139 Q 452.164 62.644 452.21 62.368 A 1.034 1.034 0 0 0 452.227 62.2 Q 452.227 61.5 451.727 61.5 A 1.061 1.061 0 0 0 451.104 61.691 Q 450.752 61.937 450.527 62.5 Q 449.627 64.3 448.127 67.15 Q 446.627 70 444.827 72.8 A 41.04 41.04 0 0 1 444.598 73.152 Q 442.909 75.721 441.177 77.5 A 11.873 11.873 0 0 1 441.038 77.64 Q 439.266 79.4 437.727 79.4 Q 436.127 79.4 436.127 76.6 A 5.026 5.026 0 0 1 436.136 76.318 Q 436.164 75.829 436.277 75 A 116.096 116.096 0 0 1 436.344 74.512 Q 436.416 74.005 436.474 73.631 A 30.145 30.145 0 0 1 436.527 73.3 A 22.112 22.112 0 0 1 436.826 72.182 Q 437.077 71.327 437.425 70.363 A 47.962 47.962 0 0 1 438.227 68.3 Q 439.427 65.4 440.927 62.6 Q 442.427 59.8 443.777 57.6 A 40.561 40.561 0 0 1 444.408 56.602 Q 445.324 55.203 445.927 54.6 Q 444.727 54.8 443.627 54.5 Q 442.527 54.2 441.427 54.2 A 5.83 5.83 0 0 0 440.773 54.236 A 4.174 4.174 0 0 0 437.727 56 A 30.82 30.82 0 0 0 437.106 56.893 Q 436.58 57.679 436.024 58.602 A 61.644 61.644 0 0 0 434.927 60.5 A 258.465 258.465 0 0 1 433.561 62.951 A 218.815 218.815 0 0 1 430.627 68 Q 428.527 71.5 425.927 74.7 A 25.68 25.68 0 0 1 424.833 75.892 Q 422.954 77.809 421.284 78.58 A 5.142 5.142 0 0 1 419.127 79.1 A 3.501 3.501 0 0 1 418.867 79.091 Q 416.627 78.924 416.627 75.8 L 416.627 75.05 A 1.295 1.295 0 0 1 416.627 75.042 Q 416.628 74.79 416.727 74.2 A 17.793 17.793 0 0 1 416.965 72.932 A 20.776 20.776 0 0 1 417.827 70.1 A 48.058 48.058 0 0 1 418.536 68.339 A 37.407 37.407 0 0 1 419.477 66.3 A 75.383 75.383 0 0 1 419.599 66.057 Q 420.158 64.948 420.507 64.355 A 7.503 7.503 0 0 1 420.727 64 A 55.511 55.511 0 0 1 421.241 63.178 A 60.452 60.452 0 0 1 427.077 55.5 A 39.977 39.977 0 0 1 428.69 53.788 Q 430.023 52.457 431.323 51.442 A 19.114 19.114 0 0 1 434.127 49.6 Q 435.433 48.947 436.563 48.682 A 6.412 6.412 0 0 1 438.027 48.5 Q 440.593 48.5 441.889 50.279 A 5.909 5.909 0 0 1 442.727 52 A 2.381 2.381 0 0 0 442.954 52.046 Q 443.6 52.142 444.027 51.8 A 1.638 1.638 0 0 0 444.13 51.71 A 1.208 1.208 0 0 0 444.527 50.8 Q 444.527 49.9 443.827 49.2 Q 442.227 47.5 440.127 46.75 Q 438.027 46 435.727 46 A 15.8 15.8 0 0 0 431.625 46.555 A 20.14 20.14 0 0 0 427.577 48.15 Q 423.427 50.3 420.527 53.8 A 57.715 57.715 0 0 0 419.655 54.892 Q 417.82 57.249 416.451 59.531 A 32.715 32.715 0 0 0 414.027 64.4 A 37.783 37.783 0 0 0 413.39 66.146 Q 412.04 70.159 412.027 73.438 A 16.061 16.061 0 0 0 412.027 73.5 Q 412.027 77.3 413.627 79.65 A 6.732 6.732 0 0 0 414.158 80.335 A 4.712 4.712 0 0 0 417.827 82 Q 419.227 82 420.927 81.2 A 9.666 9.666 0 0 0 421.735 80.77 Q 423.072 79.978 424.527 78.6 A 28.247 28.247 0 0 0 425.74 77.367 A 32.422 32.422 0 0 0 428.627 73.75 Q 430.052 71.688 431.083 70.103 A 87.33 87.33 0 0 0 431.727 69.1 A 35.301 35.301 0 0 0 431.328 70.762 Q 431.078 71.93 430.953 72.959 A 16.134 16.134 0 0 0 430.827 74.9 A 13.428 13.428 0 0 0 430.898 76.319 Q 431.099 78.216 431.877 79.4 A 8.587 8.587 0 0 0 431.934 79.486 Q 432.965 81.016 434.327 81.6 A 8.256 8.256 0 0 0 434.671 81.739 Q 435.669 82.114 436.506 82.114 Z" id="10" vector-effect="non-scaling-stroke"/><path d="M 456.127 45.9 L 450.827 45.9 Q 450.241 45.9 450.145 45.2 A 2.224 2.224 0 0 1 450.127 44.9 A 1.713 1.713 0 0 1 450.245 44.26 A 1.623 1.623 0 0 1 450.377 44 Q 450.627 43.6 451.127 43.6 L 457.127 43.6 Q 458.827 39.8 460.727 36.2 Q 462.627 32.6 464.427 29.4 Q 466.181 26.349 468.11 24.462 A 13.598 13.598 0 0 1 469.327 23.4 Q 471.927 21.4 473.827 21.4 A 3.154 3.154 0 0 1 476.184 22.394 A 3.957 3.957 0 0 1 476.327 22.55 A 3.615 3.615 0 0 1 477.006 23.764 Q 477.191 24.303 477.27 24.967 A 8.835 8.835 0 0 1 477.327 26 A 9.102 9.102 0 0 1 477.27 26.964 Q 477.16 27.989 476.838 29.384 A 35.7 35.7 0 0 1 476.727 29.85 A 23.612 23.612 0 0 1 475.83 32.685 A 30.632 30.632 0 0 1 474.827 35 Q 474.291 36.072 473.432 37.847 A 580.991 580.991 0 0 0 472.877 39 A 66.691 66.691 0 0 1 471.642 41.446 A 48.498 48.498 0 0 1 470.427 43.6 L 475.227 43.6 Q 475.812 43.6 475.908 44.3 A 2.224 2.224 0 0 1 475.927 44.6 A 1.826 1.826 0 0 1 475.865 45.059 A 2.526 2.526 0 0 1 475.727 45.45 A 1.023 1.023 0 0 1 475.606 45.657 Q 475.505 45.79 475.371 45.85 A 0.589 0.589 0 0 1 475.127 45.9 L 469.227 45.9 Q 466.727 50.2 463.527 54.3 Q 460.327 58.4 455.927 62.5 Q 455.627 63.4 455.177 65.1 Q 454.727 66.8 454.377 68.55 A 541.209 541.209 0 0 1 454.128 69.785 Q 453.933 70.75 453.777 71.5 L 453.527 72.7 Q 453.227 74 453.227 75.1 Q 453.227 77.2 454.227 78.15 Q 455.227 79.1 456.527 79.1 Q 457.327 79.1 458.127 78.85 Q 458.927 78.6 459.927 77.9 A 21.061 21.061 0 0 0 463.97 74.072 A 27.227 27.227 0 0 0 466.077 71.1 Q 468.727 66.8 470.727 62.8 A 5.159 5.159 0 0 1 470.98 62.347 Q 471.256 61.911 471.533 61.729 A 0.713 0.713 0 0 1 471.927 61.6 A 0.366 0.366 0 0 1 472.137 61.658 Q 472.327 61.786 472.327 62.2 A 1.034 1.034 0 0 1 472.31 62.368 Q 472.264 62.644 472.086 63.139 A 12.457 12.457 0 0 1 472.027 63.3 A 309.742 309.742 0 0 1 470.97 65.488 Q 469.452 68.6 468.327 70.7 Q 467.105 72.981 465.95 74.631 A 24.032 24.032 0 0 1 465.427 75.35 A 28.228 28.228 0 0 1 463.32 77.813 A 33.887 33.887 0 0 1 462.127 79 Q 460.727 80.4 458.927 81.1 Q 457.127 81.8 455.327 81.8 Q 452.527 81.8 450.327 79.85 Q 448.127 77.9 448.127 73.7 A 22.45 22.45 0 0 1 448.295 71.068 Q 448.459 69.69 448.78 68.117 A 52.228 52.228 0 0 1 449.377 65.55 A 116.39 116.39 0 0 1 451.379 58.692 A 136.321 136.321 0 0 1 452.477 55.45 Q 454.327 50.2 456.127 45.9 Z M 463.227 43.6 L 468.327 43.6 A 190.071 190.071 0 0 0 470.938 38.578 A 173.6 173.6 0 0 0 470.977 38.5 Q 472.227 36 473.227 33.5 A 20.413 20.413 0 0 0 473.951 31.574 A 26.2 26.2 0 0 0 474.427 29.9 A 25.791 25.791 0 0 0 474.668 28.846 Q 474.879 27.824 474.918 27.109 A 5.68 5.68 0 0 0 474.927 26.8 A 4.854 4.854 0 0 0 474.904 26.309 Q 474.801 25.3 474.227 25.3 A 0.878 0.878 0 0 0 473.929 25.36 Q 473.497 25.518 472.846 26.089 A 9.376 9.376 0 0 0 472.777 26.15 A 8.249 8.249 0 0 0 472.207 26.719 Q 471.614 27.365 470.886 28.359 A 36.093 36.093 0 0 0 470.427 29 A 26.263 26.263 0 0 0 469.084 31.079 Q 468.388 32.268 467.7 33.678 A 52.934 52.934 0 0 0 466.877 35.45 A 1134.456 1134.456 0 0 1 463.699 42.554 A 1249.214 1249.214 0 0 1 463.227 43.6 Z M 466.927 45.9 L 462.227 45.9 Q 460.627 49.6 459.227 53.1 A 1313.091 1313.091 0 0 1 458.059 56.009 Q 457.524 57.338 457.042 58.525 A 752.849 752.849 0 0 1 456.727 59.3 Q 459.627 56.3 462.177 52.9 Q 464.727 49.5 466.927 45.9 Z" id="11" vector-effect="non-scaling-stroke"/><path d="M 477.627 82.2 Q 473.927 82.2 470.977 79.8 A 7.63 7.63 0 0 1 468.424 75.761 Q 468.076 74.482 468.033 72.945 A 15.717 15.717 0 0 1 468.027 72.5 Q 468.027 68.132 470.1 63.151 A 35.085 35.085 0 0 1 470.227 62.85 Q 472.427 57.7 475.827 53.8 A 27.275 27.275 0 0 1 481.768 48.551 A 25.658 25.658 0 0 1 482.327 48.2 A 17.553 17.553 0 0 1 484.97 46.859 Q 486.52 46.242 487.989 46.068 A 9.679 9.679 0 0 1 489.127 46 A 6.758 6.758 0 0 1 491.206 46.31 A 5.814 5.814 0 0 1 492.927 47.2 A 4.229 4.229 0 0 1 494.593 50.247 A 6.17 6.17 0 0 1 494.627 50.9 A 7.802 7.802 0 0 1 494.263 53.183 Q 493.971 54.139 493.444 55.157 A 16.581 16.581 0 0 1 492.727 56.4 A 18.524 18.524 0 0 1 490.17 59.562 A 25.416 25.416 0 0 1 487.327 62 A 15.287 15.287 0 0 1 485.89 62.927 Q 484.838 63.53 483.527 64.1 Q 481.227 65.1 478.927 65.75 Q 476.639 66.396 475.143 66.4 A 6.934 6.934 0 0 1 475.127 66.4 Q 474.627 67.6 474.177 69.6 Q 473.727 71.6 473.727 73.7 A 10.768 10.768 0 0 0 474.043 76.354 A 9.132 9.132 0 0 0 474.727 78.2 A 3.427 3.427 0 0 0 477.21 80.081 A 5.826 5.826 0 0 0 478.427 80.2 Q 481.727 80.2 484.427 78.3 A 20.669 20.669 0 0 0 488.794 74.119 A 23.539 23.539 0 0 0 489.227 73.55 Q 491.327 70.7 492.777 67.8 Q 494.209 64.935 495.105 62.948 A 73.232 73.232 0 0 0 495.127 62.9 A 3.877 3.877 0 0 1 495.43 62.321 Q 495.961 61.5 496.727 61.5 A 0.72 0.72 0 0 1 496.925 61.525 Q 497.227 61.611 497.227 62 A 1.396 1.396 0 0 1 497.191 62.299 Q 497.124 62.606 496.927 63 Q 495.527 66 493.927 69.35 Q 492.327 72.7 490.127 75.65 Q 487.927 78.6 484.877 80.4 A 12.763 12.763 0 0 1 480.497 81.968 A 17.035 17.035 0 0 1 477.627 82.2 Z M 475.827 64.6 Q 477.227 64.6 480.527 63.55 Q 483.827 62.5 486.527 60.2 A 18.501 18.501 0 0 0 489.191 57.31 A 15.566 15.566 0 0 0 490.527 55.15 A 17.813 17.813 0 0 0 491.261 53.524 Q 491.927 51.81 491.927 50.5 A 4.456 4.456 0 0 0 491.863 49.711 Q 491.608 48.3 490.327 48.3 Q 489.127 48.3 487.027 49.9 A 17.151 17.151 0 0 0 485.692 51.044 Q 484.401 52.257 482.821 54.107 A 69.25 69.25 0 0 0 481.827 55.3 A 50.388 50.388 0 0 0 478.655 59.806 A 55.924 55.924 0 0 0 478.227 60.5 Q 476.527 63.3 475.827 64.6 Z" id="12" vector-effect="non-scaling-stroke"/></g></svg>